<?xml version="1.0" encoding="utf-8"?>
<!-- Generator: Adobe Illustrator 26.2.1, SVG Export Plug-In . SVG Version: 6.00 Build 0)  -->
<svg version="1.1" id="Capa_1" xmlns="http://www.w3.org/2000/svg" xmlns:xlink="http://www.w3.org/1999/xlink" x="0px" y="0px"
	 viewBox="0 0 1080 243.05" style="enable-background:new 0 0 1080 243.05;" xml:space="preserve">
<style type="text/css">
	.st0{fill:#080C21;}
	.st1{fill:#4665E8;}
</style>
<g>
	<path class="st0" d="M231.93,147.19c0.18-3.35,0.71-6.68,1.6-9.91c2.8-10.2,8.14-18.89,16.02-26.08
		c5.71-5.22,12.72-9.38,21.02-12.49c8.3-3.11,17.72-4.66,28.29-4.66c10.5,0,19.96,1.57,28.38,4.71c8.42,3.14,15.57,7.44,21.44,12.91
		c5.87,5.47,10.38,11.9,13.51,19.29c3.14,7.39,4.71,15.32,4.71,23.77c0,1.06-0.02,2.19-0.05,3.4c-0.03,1.21-0.11,2.31-0.23,3.31
		c0,0,0,0,0,0H262.6c0,0,0,0,0,0c1.18,3.29,3.09,6.3,5.73,9.04c2.64,2.74,5.95,5.1,9.93,7.08c3.98,1.99,8.57,3.53,13.79,4.62
		c5.22,1.09,11,1.63,17.34,1.63c6.34,0,12.64-0.67,18.92-2c6.28-1.33,12.27-3.03,17.99-5.08c0,0,0,0,0,0l8.39,18.95
		c0.52,1.17,0,2.55-1.17,3.06c-2.92,1.29-5.87,2.45-8.85,3.47c-3.7,1.27-7.55,2.33-11.56,3.17c-4.01,0.84-8.2,1.47-12.58,1.91
		c-4.38,0.43-8.99,0.65-13.84,0.65c-12.37,0-23.21-1.49-32.53-4.47c-9.32-2.98-17.12-7.05-23.39-12.21
		c-6.28-5.16-11-11.22-14.17-18.17C232.98,165.14,231.42,156.51,231.93,147.19z M337.63,139.9
		C337.63,139.9,337.63,139.9,337.63,139.9c-0.99-3.04-2.53-5.89-4.61-8.53c-2.08-2.64-4.68-4.94-7.78-6.89
		c-3.11-1.96-6.71-3.5-10.81-4.62c-4.1-1.12-8.61-1.68-13.51-1.68c-5.22,0-9.97,0.59-14.26,1.77c-4.29,1.18-8.05,2.77-11.28,4.75
		c-3.23,1.99-5.92,4.29-8.06,6.9c-2.15,2.61-3.72,5.37-4.71,8.3c0,0,0,0,0,0H337.63z"/>
	<path class="st0" d="M382.25,51.36h21.61c1.65,0,2.99,1.34,2.99,2.99v46.68c0,2.28,2.43,3.7,4.43,2.61
		c1.29-0.7,2.67-1.38,4.14-2.05c3.29-1.49,6.84-2.8,10.63-3.92c3.79-1.12,7.7-2,11.74-2.65c4.04-0.65,8.08-0.98,12.12-0.98
		c9.32,0,17.88,1.37,25.68,4.1c7.8,2.73,14.5,6.59,20.09,11.56c5.59,4.97,9.95,10.92,13.09,17.85c3.14,6.93,4.71,14.59,4.71,22.97
		c0,8.76-1.65,16.67-4.94,23.72c-3.29,7.05-7.85,13.08-13.66,18.08c-5.81,5-12.71,8.86-20.69,11.56c-7.99,2.7-16.64,4.06-25.96,4.06
		c-3.98,0-7.91-0.25-11.79-0.75c-3.88-0.5-7.61-1.18-11.19-2.05c-3.57-0.87-6.93-1.91-10.06-3.12c-1.43-0.55-2.79-1.13-4.08-1.73
		c-1.99-0.93-4.26,0.5-4.26,2.7l0,0c0,1.65-1.34,2.99-2.99,2.99h-21.61c-1.65,0-2.99-1.34-2.99-2.99V54.35
		C379.26,52.7,380.6,51.36,382.25,51.36z M406.85,169.93c0,0.93,0.42,1.82,1.17,2.38c2.45,1.85,5.01,3.44,7.69,4.78
		c3.11,1.56,6.27,2.83,9.51,3.82c3.23,0.99,6.49,1.72,9.79,2.19c3.29,0.47,6.5,0.7,9.6,0.7c6.34,0,11.98-0.85,16.92-2.56
		c4.94-1.71,9.1-4.05,12.49-7.04c3.38-2.98,5.98-6.49,7.78-10.53c1.8-4.04,2.7-8.42,2.7-13.14c0-4.41-0.89-8.57-2.66-12.49
		c-1.77-3.92-4.32-7.35-7.64-10.3c-3.33-2.95-7.34-5.28-12.03-6.99c-4.69-1.71-9.96-2.56-15.8-2.56c-3.73,0-7.46,0.36-11.19,1.07
		c-3.73,0.72-7.32,1.72-10.76,3.03c-3.45,1.31-6.68,2.89-9.7,4.75c-2.62,1.62-4.95,3.41-6.98,5.36c-0.58,0.56-0.89,1.34-0.89,2.15
		V169.93z"/>
	<path class="st0" d="M520.76,171.31c0-5.28,1.15-10.1,3.45-14.45c2.3-4.35,5.75-8.09,10.35-11.23c4.6-3.14,10.33-5.56,17.2-7.27
		c6.87-1.71,14.87-2.56,24-2.56c6.77,0,13.9,0.5,21.39,1.49c5.55,0.74,11.23,1.76,17.03,3.08c3.06,0.69,5.69-2.34,4.47-5.23
		c-0.43-1.01-0.93-1.98-1.51-2.93c-1.8-2.95-4.31-5.5-7.5-7.64c-3.2-2.15-7.05-3.81-11.56-4.99c-4.51-1.18-9.62-1.77-15.33-1.77
		c-3.11,0-6.53,0.18-10.25,0.56c-3.73,0.37-7.58,0.93-11.56,1.68c-3.98,0.75-7.91,1.68-11.79,2.79c-2.5,0.72-4.9,1.54-7.18,2.44
		c-2.03,0.8-4.33-0.19-5.09-2.24l-5.59-15.1c-0.77-2.07,0.35-4.36,2.45-5.05c3.04-0.99,6.22-1.92,9.54-2.79
		c4.75-1.24,9.61-2.31,14.59-3.21c4.97-0.9,9.94-1.6,14.91-2.1c4.97-0.5,9.79-0.75,14.45-0.75c20.57,0,35.85,5.25,45.86,15.75
		c10,10.5,15,26.6,15,48.28v44.03c0,2.14-1.74,3.88-3.88,3.88h-19.83c-2.14,0-3.88-1.74-3.88-3.88v0c0-2.87-3-4.74-5.57-3.48
		c-1.23,0.6-2.49,1.19-3.8,1.76c-3.38,1.49-7.07,2.8-11.04,3.92c-3.98,1.12-8.25,2-12.82,2.65c-4.57,0.65-9.4,0.98-14.49,0.98
		c-8.57,0-16.11-0.93-22.6-2.8c-6.5-1.86-11.92-4.44-16.27-7.73c-4.35-3.29-7.63-7.16-9.83-11.6
		C521.87,181.36,520.76,176.53,520.76,171.31z M549.84,170.38c0,1.8,0.47,3.53,1.4,5.17c0.93,1.65,2.42,3.11,4.47,4.38
		c2.05,1.27,4.67,2.3,7.88,3.08c3.2,0.78,7.07,1.16,11.6,1.16c4.85,0,9.54-0.43,14.07-1.3c4.53-0.87,8.76-2.02,12.67-3.45
		c3.92-1.43,7.46-3.08,10.63-4.94c2.5-1.47,4.67-2.98,6.52-4.53c0.89-0.75,1.4-1.84,1.4-2.99v-0.13c0-1.75-1.17-3.3-2.87-3.75
		c-3.25-0.85-6.47-1.58-9.66-2.21c-4.13-0.81-8.08-1.44-11.84-1.91c-3.76-0.47-7.3-0.79-10.63-0.98c-3.33-0.19-6.23-0.28-8.72-0.28
		c-5.16,0-9.45,0.34-12.86,1.02c-3.42,0.68-6.18,1.6-8.29,2.75c-2.11,1.15-3.61,2.5-4.47,4.06
		C550.28,167.08,549.84,168.7,549.84,170.38z"/>
	<path class="st0" d="M666.87,51.45h22c1.54,0,2.8,1.25,2.8,2.8v45.6c0,2.05,2.13,3.39,3.99,2.51c4.72-2.23,9.83-4.07,15.35-5.52
		c7.11-1.86,14.59-2.8,22.41-2.8c9.07,0,17.23,1.34,24.47,4.01c7.24,2.67,13.37,6.51,18.41,11.51c5.03,5,8.9,11.08,11.6,18.22
		c2.7,7.15,4.06,15.19,4.06,24.14v51.26c0,1.54-1.25,2.8-2.8,2.8h-21.9c-1.54,0-2.8-1.25-2.8-2.8v-50.15
		c0-5.22-0.84-9.99-2.52-14.31c-1.68-4.32-4.13-8.03-7.36-11.14c-3.23-3.11-7.16-5.51-11.79-7.23c-4.63-1.71-9.86-2.56-15.71-2.56
		c-7.02,0-13.55,1.12-19.57,3.35c-5.52,2.05-10.42,4.6-14.69,7.64c-0.73,0.52-1.15,1.38-1.15,2.28v72.11c0,1.54-1.25,2.8-2.8,2.8
		h-22c-1.54,0-2.8-1.25-2.8-2.8V54.25C664.08,52.7,665.33,51.45,666.87,51.45z"/>
	<path class="st0" d="M810.87,96h22.1c1.51,0,2.74,1.23,2.74,2.74v1.99c0,2.05,2.17,3.36,4,2.43c5.89-3.03,11.57-5.23,17.02-6.6
		c6.68-1.68,13.22-2.52,19.62-2.52c8.39,0,16.15,1.23,23.3,3.68c7.14,2.46,13.33,6.1,18.55,10.95c5.22,4.85,9.3,10.89,12.26,18.13
		c2.95,7.24,4.43,15.61,4.43,25.12v51.32c0,1.51-1.23,2.74-2.74,2.74h-22.01c-1.51,0-2.74-1.23-2.74-2.74V156.4
		c0-6.03-0.85-11.42-2.56-16.17c-1.71-4.75-4.17-8.76-7.36-12.02c-3.2-3.26-7.09-5.75-11.65-7.46c-4.57-1.71-9.68-2.56-15.33-2.56
		c-2.98,0-6.04,0.31-9.18,0.93c-3.14,0.62-6.21,1.51-9.23,2.66c-3.01,1.15-5.92,2.58-8.71,4.29c-2.44,1.49-4.69,3.16-6.75,5
		c-0.58,0.52-0.89,1.26-0.89,2.04v70.14c0,1.51-1.23,2.74-2.74,2.74h-22.1c-1.51,0-2.74-1.23-2.74-2.74V98.74
		C808.13,97.23,809.36,96,810.87,96z"/>
	<path class="st0" d="M945.73,171.31c0-5.28,1.15-10.1,3.45-14.45c2.3-4.35,5.75-8.09,10.35-11.23c4.6-3.14,10.33-5.56,17.2-7.27
		c6.87-1.71,14.87-2.56,24-2.56c6.77,0,13.9,0.5,21.39,1.49c5.55,0.74,11.23,1.76,17.03,3.08c3.06,0.69,5.69-2.34,4.47-5.23
		c-0.43-1.01-0.93-1.98-1.51-2.93c-1.8-2.95-4.31-5.5-7.5-7.64c-3.2-2.15-7.05-3.81-11.56-4.99c-4.51-1.18-9.62-1.77-15.33-1.77
		c-3.11,0-6.53,0.18-10.25,0.56c-3.73,0.37-7.58,0.93-11.56,1.68c-3.98,0.75-7.91,1.68-11.79,2.79c-2.5,0.72-4.9,1.54-7.18,2.44
		c-2.03,0.8-4.33-0.19-5.09-2.24l-5.59-15.1c-0.77-2.07,0.35-4.36,2.45-5.05c3.04-0.99,6.22-1.92,9.54-2.79
		c4.75-1.24,9.61-2.31,14.59-3.21c4.97-0.9,9.94-1.6,14.91-2.1c4.97-0.5,9.79-0.75,14.45-0.75c20.57,0,35.85,5.25,45.86,15.75
		c10,10.5,15,26.6,15,48.28v44.03c0,2.14-1.74,3.88-3.88,3.88h-19.83c-2.14,0-3.88-1.74-3.88-3.88v0c0-2.87-3-4.74-5.57-3.48
		c-1.23,0.6-2.49,1.19-3.8,1.76c-3.38,1.49-7.07,2.8-11.04,3.92c-3.98,1.12-8.25,2-12.82,2.65c-4.57,0.65-9.4,0.98-14.49,0.98
		c-8.57,0-16.11-0.93-22.6-2.8c-6.5-1.86-11.92-4.44-16.27-7.73c-4.35-3.29-7.63-7.16-9.83-11.6
		C946.84,181.36,945.73,176.53,945.73,171.31z M974.81,170.38c0,1.8,0.47,3.53,1.4,5.17c0.93,1.65,2.42,3.11,4.47,4.38
		c2.05,1.27,4.67,2.3,7.88,3.08c3.2,0.78,7.07,1.16,11.6,1.16c4.85,0,9.54-0.43,14.07-1.3c4.53-0.87,8.76-2.02,12.67-3.45
		c3.92-1.43,7.46-3.08,10.63-4.94c2.5-1.47,4.67-2.98,6.52-4.53c0.89-0.75,1.4-1.84,1.4-2.99v-0.13c0-1.75-1.17-3.3-2.87-3.75
		c-3.25-0.85-6.47-1.58-9.66-2.21c-4.13-0.81-8.08-1.44-11.84-1.91c-3.76-0.47-7.3-0.79-10.63-0.98c-3.33-0.19-6.23-0.28-8.72-0.28
		c-5.16,0-9.45,0.34-12.86,1.02c-3.42,0.68-6.18,1.6-8.29,2.75c-2.11,1.15-3.61,2.5-4.47,4.06
		C975.25,167.08,974.81,168.7,974.81,170.38z"/>
	<path class="st1" d="M212.5,43.96l-21,16.97c-1.17,1.15-2.47,2.22-2.45,3.86l1.85,91.68l0.48,14.11c0.15,3.71-4.32,5.71-6.98,3.11
		l-10.18-9.78l-21.16-19.8c-0.84-0.78-1.32-1.86-1.31-3.02l-0.13-67.09c-0.03-1.63,0.92-3.11,2.41-3.77l0.06-0.03
		c2.07-0.92,3.01-3.37,2.09-5.45L128.26,2.44c-0.92-2.07-3.37-3.01-5.48-2.07l-19.41,8.69c-2.1,0.94-3.01,3.37-2.07,5.48
		l27.81,62.03c0.94,2.1,0,4.55-2.1,5.49l-2.34,1.04c-1.52,0.68-2.49,2.19-2.48,3.87l0.39,19.01c0.03,1.59-0.78,2.83-1.89,3.55
		c-0.18,0.12-0.38,0.2-0.58,0.29c-0.2,0.09-0.39,0.18-0.6,0.23c-1.28,0.34-2.75,0.12-3.91-0.97L101.73,96.1
		c-1.24-1.13-3.01-1.42-4.53-0.74l-2.34,1.04c-2.1,0.94-4.55,0-5.49-2.1L61.79,32.16c-0.94-2.1-3.36-3.05-5.46-2.12L36.9,38.67
		c-2.1,0.94-3.04,3.39-2.12,5.46l27.69,62.4c0.92,2.07,3.37,3.01,5.45,2.09l0.06-0.03c1.49-0.66,3.22-0.39,4.42,0.72l49.83,44.92
		c0.87,0.77,1.35,1.85,1.37,2.99l0.6,28.97l0.48,14.11c0.15,3.71-4.32,5.71-6.98,3.11l-10.18-9.78l-66.97-62.63
		c-1.2-1.11-2.87-0.86-4.5-0.76L9.4,134.55c-2.74,1.22-3.29,4.86-1.07,6.85l111.53,100.59c1.21,1.07,2.96,1.38,4.46,0.67
		l25.14-11.22c1.5-0.64,2.47-2.15,2.48-3.77l-0.1-37.42c0.01-1.55,0.8-2.74,1.89-3.45c0.19-0.12,0.39-0.21,0.59-0.3
		c0.2-0.09,0.4-0.18,0.62-0.24c1.26-0.34,2.67-0.13,3.83,0.9l27.78,25.07c1.21,1.07,2.99,1.36,4.46,0.67l25.14-11.22
		c1.53-0.65,2.47-2.15,2.48-3.77l-0.33-150.2C218.31,44.76,215.24,42.73,212.5,43.96z"/>
</g>
</svg>
